<?xml version="1.0" encoding="UTF-8"?>
<!DOCTYPE svg PUBLIC "-//W3C//DTD SVG 1.1//EN" "http://www.w3.org/Graphics/SVG/1.1/DTD/svg11.dtd">
<!-- Creator: CorelDRAW SE -->
<svg xmlns="http://www.w3.org/2000/svg" xml:space="preserve" width="57.229mm" height="13.3067mm" version="1.1" shape-rendering="geometricPrecision" text-rendering="geometricPrecision" image-rendering="optimizeQuality" fill-rule="evenodd" clip-rule="evenodd"
viewBox="0 0 1345 313"
 xmlns:xlink="http://www.w3.org/1999/xlink"
 xmlns:svg="http://www.w3.org/2000/svg">
 <defs>
    <linearGradient id="id0" gradientUnits="userSpaceOnUse" x1="-0" y1="0" x2="8.51502" y2="0">
     <stop offset="0" stop-opacity="1" stop-color="#58AB27"/>
     <stop offset="0.780392" stop-opacity="1" stop-color="#93C36C"/>
     <stop offset="1" stop-opacity="1" stop-color="#93C36C"/>
    </linearGradient>
    <linearGradient id="id1" gradientUnits="userSpaceOnUse" x1="-0.00235092" y1="0" x2="8.51267" y2="0">
     <stop offset="0" stop-opacity="1" stop-color="#88BCE2"/>
     <stop offset="1" stop-opacity="1" stop-color="#5489C2"/>
    </linearGradient>
 </defs>
 <g id="Ebene_x0020_1">
  <metadata id="CorelCorpID_0Corel-Layer"/>
  <path fill="#538AC2" fill-rule="nonzero" d="M504 182c0,5 0,9 -1,13 0,3 0,6 -1,9l-58 0c1,9 4,15 9,19 5,4 12,6 21,6 3,0 6,0 9,-1 3,-1 5,-1 8,-2 2,-1 3,-2 5,-3 1,-1 3,-2 3,-3l7 20c-1,1 -2,2 -4,3 -2,2 -4,3 -7,4 -3,2 -7,3 -11,4 -5,1 -10,2 -17,2 -7,0 -14,-1 -20,-4 -6,-2 -12,-5 -16,-10 -4,-4 -8,-10 -10,-18 -3,-7 -4,-16 -4,-26 0,-10 1,-18 4,-25 2,-7 6,-13 11,-17 4,-5 9,-8 15,-11 6,-2 13,-3 19,-3 12,0 21,4 28,11 7,7 10,18 10,32zm-40 -21c-6,0 -11,2 -14,6 -4,4 -6,10 -6,18l35 0c0,-1 0,-2 0,-3 0,-1 0,-2 0,-2 0,-6 -1,-11 -4,-14 -3,-4 -6,-5 -11,-5z"/>
  <polygon id="1" fill="#538AC2" fill-rule="nonzero" points="543,118 525,118 525,96 591,96 591,118 573,118 573,228 591,228 591,250 525,250 525,228 543,228 "/>
  <path id="2" fill="#538AC2" fill-rule="nonzero" d="M619 250l0 -154 37 0c15,0 27,2 38,5 11,3 19,7 26,13 7,6 13,14 16,23 3,10 5,21 5,34 0,14 -2,26 -6,36 -4,10 -10,18 -17,24 -8,7 -17,11 -28,14 -10,3 -22,5 -36,5l-35 0zm30 -129l0 104 5 0c9,0 17,-1 24,-3 7,-2 13,-5 18,-9 5,-4 8,-10 10,-17 3,-7 4,-15 4,-25 0,-9 -1,-17 -3,-23 -3,-7 -6,-12 -11,-16 -4,-4 -10,-7 -16,-8 -7,-2 -15,-3 -24,-3l-7 0z"/>
  <polygon id="3" fill="#538AC2" fill-rule="nonzero" points="827,193 765,193 765,171 827,171 "/>
  <polygon id="4" fill="#538AC2" fill-rule="nonzero" points="887,96 887,226 948,226 946,250 858,250 858,96 "/>
  <path id="5" fill="#538AC2" fill-rule="nonzero" d="M1060 196c0,9 -1,18 -4,25 -3,7 -7,13 -11,18 -5,4 -10,8 -16,10 -6,2 -13,4 -19,4 -7,0 -14,-1 -19,-4 -6,-2 -12,-5 -16,-10 -4,-5 -8,-11 -10,-18 -3,-7 -4,-15 -4,-25 0,-10 1,-18 4,-25 3,-7 7,-13 11,-18 5,-5 10,-8 16,-11 6,-2 13,-3 19,-3 7,0 13,1 19,3 6,3 12,6 16,11 4,4 8,10 10,17 3,7 4,16 4,26zm-29 0c0,-6 0,-11 -1,-16 -1,-4 -3,-7 -5,-10 -2,-2 -4,-4 -6,-5 -3,-1 -6,-2 -8,-2 -6,0 -11,3 -15,8 -4,5 -7,13 -7,25 0,12 3,20 7,25 4,5 9,8 15,8 2,0 5,-1 8,-2 2,-1 5,-3 6,-6 2,-3 4,-6 5,-10 1,-4 1,-9 1,-15z"/>
  <path id="6" fill="#538AC2" fill-rule="nonzero" d="M1174 159l-13 0c3,5 4,11 4,17 0,6 -1,12 -3,16 -2,5 -5,9 -9,12 -4,3 -9,5 -14,7 -5,1 -11,2 -17,2 -4,0 -7,0 -10,-1 -2,1 -3,2 -4,4 -1,1 -1,2 -1,4 0,4 2,6 7,6l24 0c12,0 21,3 27,8 7,4 10,12 10,22 0,5 -1,11 -4,16 -2,5 -6,9 -11,13 -5,4 -11,7 -19,9 -7,2 -16,3 -26,3 -14,0 -25,-2 -32,-7 -7,-5 -10,-12 -10,-21 0,-4 0,-7 2,-10 1,-2 2,-5 4,-7 2,-1 4,-3 6,-4 2,-2 3,-3 5,-4l0 0c-4,-4 -6,-9 -6,-15 0,-3 0,-6 1,-8 1,-2 3,-4 4,-6 1,-2 3,-3 4,-5 2,-1 3,-2 4,-2l0 0c-6,-3 -10,-7 -13,-13 -3,-5 -5,-11 -5,-19 0,-6 1,-12 3,-16 3,-5 6,-9 10,-12 3,-3 8,-5 13,-7 6,-1 11,-2 17,-2 6,0 12,1 17,3l38 0 -3 17zm-62 90c-2,0 -3,0 -5,0 -1,0 -3,0 -4,0 -2,1 -3,2 -4,5 -2,2 -2,4 -2,8 0,5 1,9 5,11 4,3 9,4 16,4 10,0 19,-2 24,-5 5,-3 8,-8 8,-12 0,-4 -1,-7 -3,-8 -2,-2 -6,-3 -12,-3l-23 0zm29 -73c0,-6 -2,-11 -6,-13 -4,-3 -8,-4 -13,-4 -4,0 -9,1 -13,4 -3,2 -5,7 -5,13 0,6 2,11 5,13 4,3 8,4 13,4 5,0 9,-1 13,-4 4,-2 6,-7 6,-13z"/>
  <path id="7" fill="#538AC2" fill-rule="nonzero" d="M1224 250l-28 0 0 -108 28 0 0 108zm2 -143c0,5 -2,9 -5,12 -3,3 -7,4 -11,4 -5,0 -9,-1 -12,-4 -3,-3 -5,-7 -5,-12 0,-5 2,-9 5,-12 3,-3 7,-4 12,-4 4,0 8,1 11,4 3,3 5,7 5,12z"/>
  <path id="8" fill="#538AC2" fill-rule="nonzero" d="M1317 250l0 -64c0,-8 -1,-14 -4,-18 -2,-3 -7,-5 -13,-5 -5,0 -9,1 -12,2 -3,2 -6,4 -8,6l0 79 -28 0 0 -108 26 0 0 12 0 0c1,-2 3,-3 5,-5 1,-2 3,-3 6,-5 2,-1 5,-2 9,-3 3,-2 7,-2 12,-2 11,0 20,4 26,11 6,7 9,18 9,31l0 69 -28 0z"/>
  <g id="Personalausweis_logo.svg">
   <path id="path2569" fill="url(#id0)" d="M43 156c0,60 45,108 103,114l0 0 0 -41c-35,-5 -63,-36 -63,-73l0 0c0,-37 28,-67 63,-73l0 0 0 -40c-58,6 -103,54 -103,113z"/>
   <path id="path2589" fill="url(#id1)" d="M167 83c35,6 62,36 62,73l0 0c0,37 -27,68 -62,73l0 0 0 41c58,-6 103,-54 103,-114l0 0c0,-59 -45,-107 -103,-113l0 0 0 40z"/>
   <g>
    <path id="path2601" fill="#5489C2" fill-rule="nonzero" d="M313 268l0 -224c0,0 0,-44 -45,-44l-224 0c0,0 -44,0 -44,44l0 224c0,0 0,45 44,45l224 0c0,0 45,0 45,-45l0 0zm-9 -2c0,38 -38,38 -38,38l-220 0c-37,0 -37,-38 -37,-38l0 -220c0,-37 37,-37 37,-37l220 0c38,0 38,37 38,37l0 220z"/>
   </g>
  </g>
 </g>
</svg>
